<svg width="24" height="24" viewBox="0 0 24 24" fill="none" xmlns="http://www.w3.org/2000/svg">
<path d="M18.8637 2.25H6.009C5.55006 2.25 5.10992 2.43923 4.7854 2.77605C4.46088 3.11288 4.27856 3.56971 4.27856 4.04605V19.9539C4.27856 20.4303 4.46088 20.8871 4.7854 21.2239C5.10992 21.5608 5.55006 21.75 6.009 21.75H18.8637C19.3226 21.75 19.7628 21.5608 20.0873 21.2239C20.4118 20.8871 20.5941 20.4303 20.5941 19.9539V4.04605C20.5941 3.56971 20.4118 3.11288 20.0873 2.77605C19.7628 2.43923 19.3226 2.25 18.8637 2.25ZM6.009 3.78947H18.8637C18.9292 3.78947 18.9921 3.81651 19.0385 3.86462C19.0848 3.91274 19.1109 3.978 19.1109 4.04605V19.9539C19.1109 20.022 19.0848 20.0873 19.0385 20.1354C18.9921 20.1835 18.9292 20.2105 18.8637 20.2105H6.009C5.94344 20.2105 5.88056 20.1835 5.8342 20.1354C5.78784 20.0873 5.7618 20.022 5.7618 19.9539V4.04605C5.7618 3.978 5.78784 3.91274 5.8342 3.86462C5.88056 3.81651 5.94344 3.78947 6.009 3.78947Z" fill="#333333"/>
<path d="M16.3817 15.75C16.5722 15.7498 16.7553 15.8258 16.892 15.9617C17.0287 16.0976 17.1083 16.2828 17.1139 16.478C17.1195 16.6731 17.0506 16.8628 16.9219 17.0067C16.7932 17.1507 16.6148 17.2375 16.4247 17.2487L16.3817 17.25H8.57645C8.38597 17.2502 8.20293 17.1742 8.06622 17.0383C7.92951 16.9024 7.8499 16.7172 7.84431 16.522C7.83872 16.3269 7.90759 16.1372 8.03629 15.9933C8.16498 15.8493 8.34336 15.7625 8.53352 15.7512L8.57645 15.75H16.3817ZM13.4548 11.25C13.6452 11.2498 13.8283 11.3258 13.965 11.4617C14.1017 11.5976 14.1813 11.7828 14.1869 11.978C14.1925 12.1731 14.1236 12.3628 13.9949 12.5067C13.8662 12.6507 13.6878 12.7375 13.4977 12.7488L13.4548 12.75H8.57645C8.38597 12.7502 8.20293 12.6742 8.06622 12.5383C7.92951 12.4024 7.8499 12.2172 7.84431 12.022C7.83872 11.8269 7.90759 11.6372 8.03629 11.4933C8.16498 11.3493 8.34336 11.2625 8.53352 11.2512L8.57645 11.25H13.4548ZM16.3817 6.75C16.5722 6.74981 16.7553 6.82576 16.892 6.96169C17.0287 7.09763 17.1083 7.28285 17.1139 7.47799C17.1195 7.67313 17.0506 7.86282 16.9219 8.00674C16.7932 8.15067 16.6148 8.23748 16.4247 8.24875L16.3817 8.25H8.57645C8.38597 8.25019 8.20293 8.17425 8.06622 8.03831C7.92951 7.90237 7.8499 7.71715 7.84431 7.52201C7.83872 7.32687 7.90759 7.13718 8.03629 6.99326C8.16498 6.84933 8.34336 6.76252 8.53352 6.75125L8.57645 6.75H16.3817Z" fill="#29A1B2"/>
</svg>
