<svg width="24" height="24" viewBox="0 0 24 24" fill="none" xmlns="http://www.w3.org/2000/svg">
<path d="M4.5552 16.4112C4.3824 16.4112 4.2144 16.392 4.0416 16.344C1.7856 15.7584 0.268799 14.04 0.268799 12.072C0.268799 10.104 1.7856 8.3856 4.0416 7.8C4.6368 7.6416 5.28 7.7712 5.7552 8.136C6.1584 8.448 6.3888 8.8944 6.3888 9.3696V14.7792C6.3888 15.2544 6.1584 15.7008 5.7552 16.0128C5.4144 16.272 4.992 16.4112 4.5552 16.4112ZM4.5552 9.1728C4.5072 9.1728 4.4592 9.1776 4.4064 9.192C2.7936 9.6096 1.7136 10.7712 1.7136 12.072C1.7136 13.3728 2.7984 14.5296 4.4064 14.952C4.608 15.0048 4.7808 14.9376 4.872 14.8704C4.92 14.832 4.944 14.7936 4.944 14.7744V9.3696C4.944 9.3504 4.92 9.312 4.872 9.2784C4.8096 9.2208 4.6944 9.1728 4.5552 9.1728ZM19.4448 16.4112C19.0128 16.4112 18.5856 16.272 18.2448 16.008C17.8416 15.696 17.6112 15.2496 17.6112 14.7744V9.3696C17.6112 8.8944 17.8416 8.448 18.2448 8.136C18.4862 7.95353 18.7659 7.82844 19.0628 7.77022C19.3597 7.71201 19.666 7.72219 19.9584 7.8C22.2144 8.3856 23.7312 10.104 23.7312 12.072C23.7312 14.04 22.2144 15.7584 19.9632 16.344C19.7856 16.3872 19.6128 16.4112 19.4448 16.4112ZM19.4448 9.1728C19.3056 9.1728 19.1904 9.2208 19.1232 9.2736C19.0752 9.312 19.0512 9.3504 19.0512 9.3648V14.7744C19.0512 14.7936 19.0752 14.832 19.1232 14.8704C19.2144 14.9424 19.392 15.0048 19.5936 14.952C21.2064 14.5296 22.2864 13.3728 22.2864 12.072C22.2864 10.7712 21.2064 9.6096 19.5936 9.192C19.5408 9.1776 19.4928 9.1728 19.4448 9.1728Z" fill="#333333"/>
<path d="M4.56003 9.13441L3.15363 8.82241C4.03203 4.83361 7.67523 1.93921 11.808 1.93921C15.7392 1.93921 19.2384 4.54561 20.3232 8.28001L18.9408 8.68321C18.0336 5.56321 15.1008 3.38401 11.808 3.38401C8.34242 3.37921 5.29443 5.79841 4.56003 9.13441ZM14.1888 20.9376H14.1744L14.184 19.4976H14.1984C14.9376 19.4976 16.9632 19.2528 17.736 18.1248C18.7248 16.68 18.7056 15.7344 18.7056 15.7248L20.1456 15.6432C20.1552 15.7824 20.1984 17.0784 18.9264 18.9408C17.5872 20.8944 14.472 20.9376 14.1888 20.9376Z" fill="#333333"/>
<path d="M13.4496 21.3408H10.9584C10.344 21.3408 9.84961 20.8464 9.84961 20.232V20.208C9.84961 19.5936 10.344 19.0992 10.9584 19.0992H13.4496C14.064 19.0992 14.5584 19.5936 14.5584 20.208V20.232C14.5587 20.3777 14.5303 20.522 14.4747 20.6567C14.419 20.7914 14.3374 20.9137 14.2344 21.0168C14.1313 21.1198 14.009 21.2014 13.8743 21.2571C13.7396 21.3127 13.5953 21.3411 13.4496 21.3408Z" fill="#29A1B2"/>
<path d="M13.4496 22.0608H10.9584C9.95038 22.0608 9.12958 21.24 9.12958 20.232C9.12958 19.1952 9.95038 18.3744 10.9584 18.3744H13.4496C14.4576 18.3744 15.2784 19.1952 15.2784 20.2032C15.2832 21.24 14.4624 22.0608 13.4496 22.0608ZM10.9584 19.8144C10.7424 19.8144 10.5696 19.9872 10.5696 20.2032C10.5696 20.4432 10.7424 20.6208 10.9584 20.6208H13.4496C13.6656 20.6208 13.8384 20.448 13.8384 20.232C13.8384 19.992 13.6656 19.8144 13.4496 19.8144H10.9584Z" fill="#333333"/>
<path d="M11.8896 16.4064C10.2 16.4064 8.87518 15.4656 8.87518 14.2608C8.87518 13.8624 9.19678 13.5408 9.59518 13.5408C9.99358 13.5408 10.3152 13.8624 10.3152 14.2608C10.3152 14.5104 10.9104 14.9664 11.8896 14.9664C12.864 14.9664 13.464 14.5104 13.464 14.2608C13.464 13.8624 13.7856 13.5408 14.184 13.5408C14.5824 13.5408 14.904 13.8624 14.904 14.2608C14.8992 15.4656 13.5792 16.4064 11.8896 16.4064Z" fill="#29A1B2"/>
</svg>
