<svg width="24" height="24" viewBox="0 0 24 24" fill="none" xmlns="http://www.w3.org/2000/svg">
<path d="M3 12H21V13.5H3V12Z" fill="#29A1B2"/>
<path d="M11.625 21C8.87633 21 6.75 17.0541 6.75 12.027C6.75 7 8.87633 3 11.625 3C14.3737 3 16.5 6.94595 16.5 11.973C16.5 17 14.3737 21 11.625 21ZM11.625 4.08108C9.55053 4.08108 7.78723 7.7027 7.78723 11.973C7.78723 16.2432 9.55053 19.8649 11.625 19.8649C13.6995 19.8649 15.4628 16.2432 15.4628 11.973C15.4628 7.7027 13.6995 4.08108 11.625 4.08108Z" fill="#29A1B2"/>
<path d="M11.25 3.75H12.75V21.75H11.25V3.75Z" fill="#29A1B2"/>
<path d="M12 21.75C6.6375 21.75 2.25 17.3625 2.25 12C2.25 6.6375 6.6375 2.25 12 2.25C17.3625 2.25 21.75 6.6375 21.75 12C21.75 17.3625 17.3625 21.75 12 21.75ZM12 3.33333C7.23333 3.33333 3.33333 7.23333 3.33333 12C3.33333 16.7667 7.23333 20.6667 12 20.6667C16.7667 20.6667 20.6667 16.7667 20.6667 12C20.6667 7.23333 16.7667 3.33333 12 3.33333Z" fill="#333333"/>
<path d="M12 9.49441C9.06298 9.49441 6.43511 8.02374 5.40458 5.68156L5.25 5.35475L5.50763 5.0824C7.25954 3.23045 9.52672 2.25 12 2.25C14.4733 2.25 16.7405 3.23045 18.4924 5.0824L18.75 5.35475L18.5954 5.68156C17.5649 7.96927 14.937 9.49441 12 9.49441ZM6.48664 5.57263C7.46565 7.26117 9.62977 8.40503 12 8.40503C14.3702 8.40503 16.5344 7.26117 17.5134 5.57263C15.9676 4.10196 14.0611 3.33939 12 3.33939C9.93893 3.33939 8.03244 4.10196 6.48664 5.57263ZM11.9485 21.75C9.73282 21.75 7.5687 20.8785 5.86832 19.3534L5.50763 19.0265L5.81679 18.6453C7.05343 16.6844 9.42366 15.486 12.0515 15.486C14.6279 15.486 16.9466 16.6299 18.2347 18.4818L18.4924 18.8631L18.1317 19.1899C16.4313 20.824 14.2156 21.75 11.9485 21.75ZM6.95038 18.8631C8.39313 20.0615 10.145 20.6606 11.9485 20.6606C13.8034 20.6606 15.6069 20.007 17.1011 18.7542C15.9676 17.3925 14.1126 16.5754 12.0515 16.5754C9.93893 16.5754 8.03244 17.4469 6.95038 18.8631Z" fill="#333333"/>
</svg>
