<svg width="32" height="32" viewBox="0 0 32 32" fill="none" xmlns="http://www.w3.org/2000/svg">
<path d="M17.7188 5.89703L10.5421 11.3843H3.96875V20.6031H10.5048L17.7188 26.1429V5.89703ZM9.90744 9.50934L18.0868 3.25528C18.4981 2.94081 19.0865 3.01931 19.401 3.43059C19.526 3.59411 19.5938 3.79423 19.5938 4.00006V28.0448C19.5938 28.5626 19.174 28.9823 18.6562 28.9823C18.4498 28.9823 18.249 28.9142 18.0853 28.7884L9.86794 22.4781H3.96875C2.93322 22.4781 2.09375 21.6387 2.09375 20.6031V11.3844C2.09375 10.3488 2.93322 9.50938 3.96875 9.50938L9.90744 9.50934Z" fill="#333333"/>
<path d="M22.8238 20.826C22.4602 21.1947 21.8666 21.1988 21.4979 20.8352C21.1293 20.4716 21.1252 19.878 21.4888 19.5094C22.4176 18.5677 22.9467 17.3042 22.9467 15.9547C22.9467 14.6215 22.4304 13.372 21.5215 12.4334C21.1613 12.0615 21.1709 11.4679 21.5428 11.1078C21.9148 10.7476 22.5083 10.7571 22.8684 11.1291C24.1127 12.414 24.8217 14.1297 24.8217 15.9547C24.8217 17.802 24.0952 19.5369 22.8238 20.826ZM26.8656 23.7159C26.5025 24.0849 25.9089 24.0898 25.5399 23.7266C25.1708 23.3635 25.166 22.7699 25.5291 22.4008C27.1895 20.7133 28.1358 18.4498 28.1358 16.0343C28.1358 13.6004 27.1748 11.321 25.4918 9.63013C25.1265 9.26316 25.1279 8.66957 25.4949 8.30432C25.8619 7.93903 26.4554 7.94041 26.8207 8.30738C28.85 10.3461 30.0108 13.0996 30.0108 16.0343C30.0108 18.9468 28.8677 21.6811 26.8656 23.7159Z" fill="#29A1B2"/>
</svg>
