<svg width="24" height="24" viewBox="0 0 24 24" fill="none" xmlns="http://www.w3.org/2000/svg">
<path d="M10.9544 2.268L3.34159 8.984C3.17136 9.13416 3.03502 9.31882 2.94164 9.52571C2.84826 9.73261 2.79998 9.95701 2.79999 10.184V20.8C2.79999 21.2243 2.96856 21.6313 3.26862 21.9314C3.56868 22.2314 3.97564 22.4 4.39999 22.4H19.6C20.0243 22.4 20.4313 22.2314 20.7314 21.9314C21.0314 21.6313 21.2 21.2243 21.2 20.8V10.1828C21.2 9.9563 21.1519 9.73238 21.0588 9.52586C20.9658 9.31933 20.83 9.13492 20.6604 8.9848L13.0732 2.2696C12.781 2.01096 12.4044 1.868 12.0142 1.86763C11.624 1.86726 11.2471 2.00951 10.9544 2.2676V2.268ZM4.39999 10.184L12.0128 3.4672L19.6 10.1828V20.8H4.39999V10.184Z" fill="#333333"/>
<path d="M12.8 14V19.2H11.2V14C11.2 13.8949 11.2207 13.7909 11.2609 13.6938C11.3011 13.5968 11.36 13.5086 11.4343 13.4343C11.5086 13.36 11.5968 13.3011 11.6939 13.2609C11.7909 13.2207 11.895 13.2 12 13.2C12.1051 13.2 12.2091 13.2207 12.3062 13.2609C12.4032 13.3011 12.4914 13.36 12.5657 13.4343C12.64 13.5086 12.6989 13.5968 12.7391 13.6938C12.7793 13.7909 12.8 13.8949 12.8 14Z" fill="#29A1B2"/>
</svg>
