<svg width="24" height="24" viewBox="0 0 24 24" fill="none" xmlns="http://www.w3.org/2000/svg">
<path d="M12 3.5C13.6811 3.5 15.3245 3.99852 16.7224 4.93251C18.1202 5.8665 19.2096 7.19402 19.853 8.74719C20.4963 10.3004 20.6647 12.0094 20.3367 13.6583C20.0087 15.3071 19.1992 16.8217 18.0104 18.0104C16.8217 19.1992 15.3071 20.0087 13.6583 20.3367C12.0094 20.6646 10.3004 20.4963 8.74719 19.853C7.19402 19.2096 5.8665 18.1202 4.93251 16.7223C3.99852 15.3245 3.5 13.6811 3.5 12C3.50265 9.74647 4.39903 7.586 5.99252 5.99252C7.58601 4.39903 9.74648 3.50265 12 3.5ZM12 2C10.0222 2 8.08879 2.58649 6.4443 3.6853C4.79981 4.78412 3.51809 6.3459 2.76121 8.17317C2.00433 10.0004 1.8063 12.0111 2.19215 13.9509C2.578 15.8907 3.53041 17.6725 4.92894 19.0711C6.32746 20.4696 8.10929 21.422 10.0491 21.8079C11.9889 22.1937 13.9996 21.9957 15.8268 21.2388C17.6541 20.4819 19.2159 19.2002 20.3147 17.5557C21.4135 15.9112 22 13.9778 22 12C22 9.34784 20.9464 6.8043 19.0711 4.92893C17.1957 3.05357 14.6522 2 12 2Z" fill="#333333"/>
<path d="M12 16.5C12.5 16.5 12.75 16.75 12.75 17.25C12.75 17.75 12.5 18 12 18C11.5 18 11.25 17.75 11.25 17.25C11.25 16.75 11.5 16.5 12 16.5Z" fill="#29A1B2"/>
<path d="M12 15.25C11.8019 15.2474 11.6126 15.1676 11.4725 15.0275C11.3324 14.8874 11.2526 14.6981 11.25 14.5V13.84C11.2399 13.2923 11.3835 12.7528 11.6645 12.2826C11.9456 11.8124 12.3528 11.4304 12.84 11.18C13.2269 10.9813 13.5359 10.6584 13.7172 10.2631C13.8986 9.8677 13.9418 9.42288 13.84 9C13.7556 8.69964 13.599 8.42451 13.3837 8.19868C13.1684 7.97285 12.9011 7.80319 12.6052 7.70453C12.3092 7.60587 11.9935 7.58121 11.6858 7.63272C11.3781 7.68423 11.0877 7.81033 10.84 8.00001C10.6148 8.17749 10.433 8.40387 10.3083 8.66201C10.1835 8.92016 10.1191 9.2033 10.12 9.49001C10.12 9.68892 10.041 9.87968 9.90033 10.0203C9.75967 10.161 9.56891 10.24 9.37 10.24C9.17108 10.24 8.98032 10.161 8.83967 10.0203C8.69901 9.87968 8.62 9.68892 8.62 9.49001C8.61957 8.88147 8.782 8.28392 9.09042 7.75934C9.39885 7.23475 9.84203 6.80226 10.374 6.50674C10.9059 6.21122 11.5073 6.06343 12.1156 6.07871C12.724 6.09399 13.3171 6.27179 13.8336 6.59365C14.35 6.91551 14.7709 7.3697 15.0526 7.90911C15.3343 8.44851 15.4665 9.05347 15.4356 9.66121C15.4046 10.269 15.2116 10.8573 14.8765 11.3653C14.5414 11.8733 14.0765 12.2823 13.53 12.55C13.2952 12.6792 13.1008 12.871 12.9684 13.104C12.836 13.337 12.7708 13.6022 12.78 13.87V14.53C12.7696 14.7281 12.6823 14.9142 12.5365 15.0487C12.3908 15.1833 12.1982 15.2555 12 15.25Z" fill="#29A1B2"/>
</svg>
