<svg width="24" height="24" viewBox="0 0 24 24" fill="none" xmlns="http://www.w3.org/2000/svg">
<path d="M13.152 13.98C13.152 15.6 14.58 16.92 16.332 16.92H19.968V15.36H16.332C15.444 15.36 14.712 14.736 14.712 13.98C14.712 13.224 15.444 12.6 16.332 12.6H19.968V11.04H16.332C14.58 11.04 13.152 12.36 13.152 13.98Z" fill="#29A1B2"/>
<path d="M19.968 5.64001H19.368V2.55601L19.32 2.42401C19.044 1.65601 18.192 1.24801 17.424 1.52401L3.85202 5.56801L3.80402 5.58001C3.69602 5.61601 3.60002 5.67601 3.50402 5.73601C2.89202 5.95201 2.46002 6.52801 2.46002 7.21201V20.76C2.46002 21.624 3.15602 22.32 4.02002 22.32H19.968C20.832 22.32 21.528 21.624 21.528 20.76V7.20001C21.54 6.33601 20.832 5.64001 19.968 5.64001ZM17.808 3.02401V5.64001H9.04802L17.808 3.02401ZM19.968 20.76H4.00802V7.20001H19.968V20.76Z" fill="#333333"/>
</svg>
