<svg width="32" height="32" viewBox="0 0 32 32" fill="none" xmlns="http://www.w3.org/2000/svg">
<path d="M30.5 16.95H10.15C9.6 16.95 9.15 16.5 9.15 15.95C9.15 15.4 9.6 14.95 10.15 14.95H30.5C31.05 14.95 31.5 15.4 31.5 15.95C31.5 16.5 31.05 16.95 30.5 16.95ZM30.5 26.05H10.15C9.6 26.05 9.15 25.6 9.15 25.05C9.15 24.5 9.6 24.05 10.15 24.05H30.5C31.05 24.05 31.5 24.5 31.5 25.05C31.5 25.6 31.05 26.05 30.5 26.05Z" fill="#333333"/>
<path d="M30.5 8.40002H10.15C9.6 8.40002 9.15 7.95002 9.15 7.40002C9.15 6.85002 9.6 6.40002 10.15 6.40002H30.5C31.05 6.40002 31.5 6.85002 31.5 7.40002C31.5 7.95002 31.05 8.40002 30.5 8.40002Z" fill="#29A1B2"/>
<path d="M2.85 17.65C1.9 17.65 1.15 16.9 1.15 15.95C1.15 15 1.9 14.25 2.85 14.25C3.8 14.25 4.55 15 4.55 15.95C4.55 16.9 3.8 17.65 2.85 17.65ZM2.85 15.65C2.7 15.65 2.55 15.8 2.55 15.95C2.55 16.1 2.7 16.25 2.85 16.25C3 16.25 3.15 16.1 3.15 15.95C3.15 15.8 3.05 15.65 2.85 15.65ZM2.85 26.75C1.9 26.75 1.15 26 1.15 25.05C1.15 24.1 1.9 23.35 2.85 23.35C3.8 23.35 4.55 24.1 4.55 25.05C4.55 26 3.8 26.75 2.85 26.75ZM2.85 24.75C2.7 24.75 2.55 24.9 2.55 25.05C2.55 25.2 2.7 25.35 2.85 25.35C3 25.35 3.15 25.2 3.15 25.05C3.15 24.9 3.05 24.75 2.85 24.75Z" fill="#333333"/>
<path d="M2.85 9.09995C1.9 9.09995 1.15 8.34995 1.15 7.39995C1.15 6.44995 1.9 5.69995 2.85 5.69995C3.8 5.69995 4.55 6.44995 4.55 7.39995C4.55 8.34995 3.8 9.09995 2.85 9.09995ZM2.85 7.09995C2.7 7.09995 2.55 7.24995 2.55 7.39995C2.55 7.54995 2.7 7.69995 2.85 7.69995C3 7.69995 3.15 7.54995 3.15 7.39995C3.15 7.24995 3.05 7.09995 2.85 7.09995Z" fill="#29A1B2"/>
</svg>
