<svg width="24" height="24" viewBox="0 0 24 24" fill="none" xmlns="http://www.w3.org/2000/svg">
<path d="M3 2C3.26522 2 3.51957 2.10536 3.70711 2.29289C3.89464 2.48043 4 2.73478 4 3V19C4 19.2652 4.10536 19.5196 4.29289 19.7071C4.48043 19.8946 4.73478 20 5 20H21C21.2652 20 21.5196 20.1054 21.7071 20.2929C21.8946 20.4804 22 20.7348 22 21C22 21.2652 21.8946 21.5196 21.7071 21.7071C21.5196 21.8946 21.2652 22 21 22H5C4.20435 22 3.44129 21.6839 2.87868 21.1213C2.31607 20.5587 2 19.7957 2 19V3C2 2.73478 2.10536 2.48043 2.29289 2.29289C2.48043 2.10536 2.73478 2 3 2Z" fill="#333333"/>
<path d="M21.707 8.293C21.8945 8.48053 21.9998 8.73484 21.9998 9C21.9998 9.26516 21.8945 9.51947 21.707 9.707L17.121 14.293C16.5584 14.8554 15.7955 15.1714 15 15.1714C14.2045 15.1714 13.4416 14.8554 12.879 14.293L10.707 12.121C10.5195 11.9335 10.2651 11.8282 9.99998 11.8282C9.73482 11.8282 9.48051 11.9335 9.29298 12.121L7.20698 14.207C7.01838 14.3892 6.76577 14.49 6.50358 14.4877C6.24138 14.4854 5.99057 14.3802 5.80516 14.1948C5.61975 14.0094 5.51458 13.7586 5.51231 13.4964C5.51003 13.2342 5.61082 12.9816 5.79298 12.793L7.87898 10.707C8.44156 10.1446 9.20449 9.82864 9.99998 9.82864C10.7955 9.82864 11.5584 10.1446 12.121 10.707L14.293 12.879C14.4805 13.0665 14.7348 13.1718 15 13.1718C15.2651 13.1718 15.5195 13.0665 15.707 12.879L20.293 8.293C20.4805 8.10553 20.7348 8.00021 21 8.00021C21.2651 8.00021 21.5195 8.10553 21.707 8.293Z" fill="#29A1B2"/>
</svg>
