<svg width="24" height="24" viewBox="0 0 24 24" fill="none" xmlns="http://www.w3.org/2000/svg">
<path d="M22.89 14.63L20.55 12L18.215 14.645H19.535C18.9856 16.2082 17.9644 17.5623 16.6125 18.5202C15.2605 19.4781 13.6444 19.9926 11.9875 19.9926C10.3305 19.9926 8.71449 19.4781 7.36251 18.5202C6.01053 17.5623 4.98934 16.2082 4.43999 14.645H2.34999C2.93199 16.755 4.19018 18.6157 5.93153 19.9418C7.67288 21.2679 9.80121 21.986 11.99 21.986C14.1788 21.986 16.3071 21.2679 18.0484 19.9418C19.7898 18.6157 21.048 16.755 21.63 14.645L22.89 14.63ZM5.78499 9.355H1.10999L3.44499 11.995L5.78499 9.355ZM12 4C13.6548 4.00416 15.2677 4.52141 16.6163 5.48047C17.9649 6.43953 18.9829 7.79322 19.53 9.355H21.63C21.0464 7.24712 19.7879 5.38868 18.0472 4.06441C16.3065 2.74014 14.1797 2.02307 11.9925 2.02307C9.80532 2.02307 7.67846 2.74014 5.93776 4.06441C4.19707 5.38868 2.93854 7.24712 2.35499 9.355H4.44999C4.99825 7.79 6.01929 6.43404 7.37187 5.47469C8.72445 4.51535 10.3417 4.00002 12 4Z" fill="#333333"/>
<path d="M12 15.5L8.55499 12.05L12 8.61L15.445 12.05L12 15.5Z" fill="#29A1B2"/>
</svg>
