<svg width="24" height="24" viewBox="0 0 24 24" fill="none" xmlns="http://www.w3.org/2000/svg">
<path d="M14.4 2.39999C13.4452 2.39999 12.5295 2.77928 11.8544 3.45441C11.1793 4.12954 10.8 5.04521 10.8 5.99999C10.8 6.95477 11.1793 7.87045 11.8544 8.54558C12.5295 9.22071 13.4452 9.59999 14.4 9.59999C15.3548 9.59999 16.2704 9.22071 16.9456 8.54558C17.6207 7.87045 18 6.95477 18 5.99999C18 5.04521 17.6207 4.12954 16.9456 3.45441C16.2704 2.77928 15.3548 2.39999 14.4 2.39999ZM14.4 3.99999C14.6626 3.99999 14.9227 4.05173 15.1654 4.15223C15.408 4.25274 15.6285 4.40006 15.8142 4.58578C15.9999 4.7715 16.1472 4.99198 16.2477 5.23463C16.3483 5.47728 16.4 5.73735 16.4 5.99999C16.4 6.26264 16.3483 6.52271 16.2477 6.76536C16.1472 7.00801 15.9999 7.22849 15.8142 7.41421C15.6285 7.59993 15.408 7.74724 15.1654 7.84775C14.9227 7.94826 14.6626 7.99999 14.4 7.99999C13.8696 7.99999 13.3608 7.78928 12.9858 7.41421C12.6107 7.03913 12.4 6.53043 12.4 5.99999C12.4 5.46956 12.6107 4.96085 12.9858 4.58578C13.3608 4.21071 13.8696 3.99999 14.4 3.99999ZM19.2 14.4C18.2452 14.4 17.3295 14.7793 16.6544 15.4544C15.9793 16.1295 15.6 17.0452 15.6 18C15.6 18.9548 15.9793 19.8704 16.6544 20.5456C17.3295 21.2207 18.2452 21.6 19.2 21.6C20.1548 21.6 21.0704 21.2207 21.7456 20.5456C22.4207 19.8704 22.8 18.9548 22.8 18C22.8 17.0452 22.4207 16.1295 21.7456 15.4544C21.0704 14.7793 20.1548 14.4 19.2 14.4ZM19.2 16C19.7304 16 20.2391 16.2107 20.6142 16.5858C20.9893 16.9609 21.2 17.4696 21.2 18C21.2 18.5304 20.9893 19.0391 20.6142 19.4142C20.2391 19.7893 19.7304 20 19.2 20C18.6696 20 18.1608 19.7893 17.7858 19.4142C17.4107 19.0391 17.2 18.5304 17.2 18C17.2 17.4696 17.4107 16.9609 17.7858 16.5858C18.1608 16.2107 18.6696 16 19.2 16Z" fill="#333333"/>
<path d="M11.8572 7.412C12.0087 7.27169 12.2085 7.19535 12.4149 7.19896C12.6213 7.20257 12.8184 7.28583 12.9648 7.43135C13.1113 7.57687 13.1958 7.77337 13.2007 7.97977C13.2056 8.18616 13.1306 8.38647 12.9912 8.5388L12.9428 8.588L7.74282 13.388C7.59138 13.5283 7.39156 13.6047 7.18513 13.601C6.97871 13.5974 6.78168 13.5142 6.63523 13.3687C6.48878 13.2231 6.40426 13.0266 6.39934 12.8202C6.39442 12.6138 6.46948 12.4135 6.60882 12.2612L6.65722 12.212L11.8572 7.412ZM7.62402 15.806C7.67298 15.6102 7.79412 15.4401 7.96318 15.3299C8.13224 15.2197 8.33672 15.1774 8.53562 15.2116L8.59402 15.2236L16.594 17.2236C16.7957 17.273 16.9702 17.399 17.0807 17.5747C17.1912 17.7505 17.2291 17.9623 17.1863 18.1655C17.1435 18.3686 17.0234 18.5472 16.8514 18.6634C16.6794 18.7797 16.4689 18.8245 16.2644 18.7884L16.206 18.7764L8.20602 16.7764C8.10408 16.7509 8.00816 16.7056 7.92374 16.643C7.83932 16.5805 7.76805 16.5019 7.714 16.4118C7.65996 16.3217 7.62419 16.2218 7.60875 16.1178C7.59331 16.0139 7.5985 15.9079 7.62402 15.806Z" fill="#333333"/>
<path d="M5.6 11.6C4.64522 11.6 3.72955 11.9793 3.05442 12.6544C2.37928 13.3296 2 14.2452 2 15.2C2 16.1548 2.37928 17.0705 3.05442 17.7456C3.72955 18.4207 4.64522 18.8 5.6 18.8C6.55478 18.8 7.47045 18.4207 8.14558 17.7456C8.82071 17.0705 9.2 16.1548 9.2 15.2C9.2 14.2452 8.82071 13.3296 8.14558 12.6544C7.47045 11.9793 6.55478 11.6 5.6 11.6ZM5.6 13.2C6.13043 13.2 6.63914 13.4107 7.01421 13.7858C7.38929 14.1609 7.6 14.6696 7.6 15.2C7.6 15.7304 7.38929 16.2391 7.01421 16.6142C6.63914 16.9893 6.13043 17.2 5.6 17.2C5.06957 17.2 4.56086 16.9893 4.18579 16.6142C3.81071 16.2391 3.6 15.7304 3.6 15.2C3.6 14.6696 3.81071 14.1609 4.18579 13.7858C4.56086 13.4107 5.06957 13.2 5.6 13.2Z" fill="#29A1B2"/>
</svg>
